<svg width="60" height="60" viewBox="0 0 60 60" fill="none" xmlns="http://www.w3.org/2000/svg">
<rect width="60" height="60" rx="30" fill="white"/>
<path fill-rule="evenodd" clip-rule="evenodd" d="M30 52.5C17.5933 52.5 7.5 42.4067 7.5 30C7.5 17.7112 17.4978 7.62019 29.7876 7.50466L29.8724 7.50047L29.9148 7.5028L30.0028 7.5C42.4067 7.5 52.5 17.5933 52.5 30C52.5 42.4067 42.4067 52.5 30 52.5ZM33.8814 35.311C34.2727 37.0104 34.4716 38.966 34.4716 41.1219C34.4716 45.1649 33.7756 48.4994 32.5123 50.5113L32.4075 50.6776L32.6026 50.653C36.8245 50.12 40.8853 48.2404 44.0362 45.3601L44.1084 45.2944L33.8087 34.9947L33.8814 35.311ZM15.8413 45.2483L15.7705 45.1821L26.0222 34.9309L25.9477 35.2495C25.5457 36.9643 25.3416 38.9399 25.3416 41.1219C25.3416 45.1444 26.032 48.47 27.2851 50.4871L27.3899 50.6553L27.1938 50.6283C22.9919 50.0557 18.9601 48.1458 15.8413 45.2483ZM30.722 50.1862L30.8911 49.9467C31.8116 48.6452 32.795 45.6438 32.795 41.1219C32.795 36.5995 31.8116 33.5977 30.8911 32.2966L30.722 32.0571V50.1862ZM27.0186 41.1219C27.0186 36.7113 27.9773 33.7104 28.8745 32.3721L29.045 32.1177V50.1261L28.8745 49.8717C27.9773 48.5329 27.0186 45.5315 27.0186 41.1219ZM45.2944 44.1079L45.3601 44.0362C48.2357 40.8904 50.1149 36.8371 50.6511 32.6236L50.6758 32.4307L50.5104 32.5323C48.4877 33.7728 45.1742 34.4557 41.1806 34.4557C38.9828 34.4557 36.9946 34.2489 35.271 33.8413L34.9514 33.7654L45.2944 44.1079ZM14.5286 43.9137C11.7177 40.7893 9.87811 36.7798 9.34938 32.6241L9.32516 32.4307L9.49053 32.5323C11.5123 33.7724 14.8258 34.4553 18.8199 34.4553C20.8845 34.4553 22.7716 34.2713 24.4295 33.9084L24.7402 33.8404L14.5943 43.9863L14.5286 43.9137ZM32.3809 30.8916C33.695 31.8037 36.6969 32.7787 41.1801 32.7787C45.6634 32.7787 48.6652 31.8037 49.9793 30.8916L50.2234 30.722H32.1363L32.3809 30.8916ZM18.8199 32.7787C14.3366 32.7787 11.3348 31.8037 10.0207 30.8916L9.77609 30.722H27.8674L27.627 30.8911C26.3311 31.8037 23.3371 32.7787 18.8199 32.7787ZM41.1801 27.0019C36.7318 27.0019 33.7295 27.9694 32.4033 28.875L32.154 29.045H50.2057L49.9565 28.875C48.6303 27.9699 45.6279 27.0019 41.1801 27.0019ZM10.043 28.875C11.3697 27.9694 14.3725 27.0019 18.8199 27.0019C23.3115 27.0019 26.3064 27.9699 27.6121 28.8755L27.8567 29.045H9.79379L10.043 28.875ZM28.8759 9.93634C27.9554 11.2379 26.972 14.2398 26.972 18.7616C26.972 23.2835 27.9554 26.2854 28.8759 27.587L29.045 27.8264V9.69689L28.8759 9.93634ZM30.8925 27.511L30.722 27.7654V9.75792L30.8925 10.0123C31.7898 11.3506 32.7484 14.3516 32.7484 18.7616C32.7484 23.1717 31.7898 26.1727 30.8925 27.511ZM41.1801 25.3253C45.1509 25.3253 48.4537 26.0017 50.4797 27.2306L50.6469 27.3321L50.6199 27.1384C50.039 22.9584 48.1314 18.9466 45.2474 15.8418L45.1817 15.771L34.9318 26.0213L35.2523 25.9449C36.9783 25.5335 38.9725 25.3253 41.1801 25.3253ZM9.37966 27.1379C9.95264 23.0171 11.8211 19.0481 14.6399 15.9634L14.7051 15.8911L24.7579 25.9435L24.4467 25.8755C22.7851 25.5098 20.8919 25.3248 18.8194 25.3248C14.8491 25.3248 11.5467 26.0012 9.51988 27.2301L9.35264 27.3317L9.37966 27.1379ZM32.5384 9.49006C33.7556 11.5211 34.4255 14.8137 34.4255 18.7616C34.4255 20.8756 34.234 22.8 33.8567 24.4812L33.7863 24.7947L43.9863 14.5943L43.9132 14.5286C40.7902 11.7186 36.7831 9.8795 32.6297 9.34984L32.4391 9.32516L32.5384 9.49006ZM15.9638 14.6399C19.0304 11.8374 22.9733 9.9722 27.0661 9.38804L27.2581 9.36102L27.1598 9.5278C25.9575 11.563 25.2955 14.8425 25.2955 18.7616C25.2955 20.8509 25.4832 22.7557 25.8526 24.4239L25.9216 24.736L15.8916 14.7056L15.9638 14.6399Z" fill="#133878"/>
</svg>
