<svg width="60" height="60" viewBox="0 0 60 60" fill="none" xmlns="http://www.w3.org/2000/svg">
<path fill-rule="evenodd" clip-rule="evenodd" d="M30 60C46.5685 60 60 46.5685 60 30C60 13.4315 46.5685 0 30 0C13.4315 0 0 13.4315 0 30C0 46.5685 13.4315 60 30 60Z" fill="white"/>
<path d="M28.1143 32.908L20.8229 40.2414C19.8171 41.2529 18.0571 41.2529 17.0514 40.2414L8.75429 31.8966C7.74857 30.8851 7.74857 29.1149 8.75429 28.1034L17.0514 19.7586C18.0571 18.7471 19.8171 18.7471 20.8229 19.7586L28.1143 27.092C29.12 28.1034 30.88 28.1034 31.8857 27.092L39.1771 19.7586C40.1829 18.7471 41.9429 18.7471 42.9486 19.7586L51.2457 28.1034C52.2514 29.1149 52.2514 30.8851 51.2457 31.8966L42.9486 40.2414C41.9429 41.2529 40.1829 41.2529 39.1771 40.2414L31.8857 32.908C30.7543 31.8966 29.12 31.8966 28.1143 32.908Z" fill="#9201E4"/>
</svg>
