<svg width="60" height="60" viewBox="0 0 60 60" fill="none" xmlns="http://www.w3.org/2000/svg">
<rect width="60" height="60" rx="30" fill="white"/>
<path fill-rule="evenodd" clip-rule="evenodd" d="M33.8277 9.58549C31.7137 7.4715 28.2863 7.4715 26.1723 9.58549L9.58549 26.1723C7.4715 28.2863 7.4715 31.7137 9.58549 33.8277L26.1723 50.4145C28.2863 52.5285 31.7137 52.5285 33.8277 50.4145L38.2227 46.0195V43.2337L37.7096 43.0213L32.4119 48.2509C31.0031 49.6416 28.737 49.6378 27.3328 48.2425L11.6062 32.6146C10.1799 31.1973 10.187 28.8878 11.622 27.4793L27.3486 12.0425C28.749 10.6679 30.991 10.6642 32.396 12.0341L48.2273 27.471C49.6736 28.8812 49.6808 31.2039 48.2432 32.623L41.287 39.4898L32.7737 31.3196C32.9736 30.9051 33.0857 30.4404 33.0857 29.9494C33.0857 28.2055 31.6719 26.7917 29.9279 26.7917C28.184 26.7917 26.7702 28.2055 26.7702 29.9494C26.7702 31.6934 28.184 33.1071 29.9279 33.1071C30.3014 33.1071 30.6597 33.0423 30.9923 32.9233L39.5114 40.9387L39.5127 40.9372L39.5489 40.974L39.669 41.087L39.6646 41.0913L40.2836 41.7192V43.9586L40.3044 43.9378V49.9826C40.3044 50.6222 40.8229 51.1406 41.4624 51.1406C42.102 51.1406 42.6204 50.6222 42.6204 49.9826V41.6218L50.4145 33.8277C52.5285 31.7137 52.5285 28.2863 50.4145 26.1723L33.8277 9.58549Z" fill="#1CB5E0"/>
</svg>
